G04*
G04 #@! TF.GenerationSoftware,Altium Limited,Altium Designer,19.1.9 (167)*
G04*
G04 Layer_Color=16711935*
%FSLAX25Y25*%
%MOIN*%
G70*
G01*
G75*
%ADD12C,0.00591*%
%ADD13C,0.00394*%
D12*
X-112065Y294265D02*
X-95135D01*
X-112065Y277335D02*
Y294265D01*
Y277335D02*
X-95135D01*
Y294265D01*
X-55565Y287449D02*
X-38635D01*
Y304378D01*
X-55565D02*
X-38635D01*
X-55565Y287449D02*
Y304378D01*
D13*
X-155610Y136201D02*
X-154637Y136355D01*
X-153759Y136802D01*
X-153062Y137499D01*
X-152615Y138377D01*
X-152461Y139350D01*
Y254350D02*
X-152615Y255324D01*
X-153062Y256202D01*
X-153759Y256898D01*
X-154637Y257346D01*
X-155610Y257500D01*
X-198721Y257500D02*
X-199694Y257346D01*
X-200572Y256898D01*
X-201269Y256202D01*
X-201716Y255324D01*
X-201870Y254350D01*
Y139350D02*
X-201716Y138377D01*
X-201269Y137499D01*
X-200572Y136802D01*
X-199694Y136355D01*
X-198721Y136201D01*
X-114092Y205832D02*
X-110549D01*
X-114092Y212525D02*
X-110549D01*
X-114092Y205832D02*
Y212525D01*
X-110549Y205832D02*
Y212525D01*
X-133777Y205832D02*
X-130234D01*
X-133777Y212525D02*
X-130234D01*
X-133777Y205832D02*
Y212525D01*
X-130234Y205832D02*
Y212525D01*
X-384016Y237441D02*
X-364016D01*
X-384016Y156260D02*
Y237441D01*
Y156260D02*
X-364016D01*
Y237441D01*
X-35439Y280815D02*
Y320185D01*
X-2761Y280815D02*
Y320185D01*
X-35439Y280815D02*
X-2761D01*
X-32978Y322547D02*
X-30419D01*
X-30911Y320185D02*
X-30419Y322547D01*
X-32978D02*
X-32486Y320185D01*
X-35439D02*
X-32486D01*
X-7781Y322547D02*
X-5222D01*
X-5714Y320185D02*
X-5222Y322547D01*
X-7781D02*
X-7289Y320185D01*
X-5714D02*
X-2761D01*
X-30911D02*
X-7289D01*
X-127337Y108438D02*
Y113162D01*
Y108438D02*
X-119463D01*
Y113162D01*
X-127337D02*
X-119463D01*
X-127337Y121038D02*
Y125762D01*
Y121038D02*
X-119463D01*
Y125762D01*
X-127337D02*
X-119463D01*
X-388779Y156850D02*
Y236850D01*
Y156850D02*
X-359252D01*
Y236850D01*
X-388779D02*
X-359252D01*
X-90551Y229724D02*
X-27559D01*
Y163976D02*
Y229724D01*
X-90551Y163976D02*
X-27559D01*
X-90551D02*
Y229724D01*
X-152461Y139350D02*
Y254350D01*
X-201870Y139350D02*
Y254350D01*
X-198524Y136201D02*
X-155610D01*
X-198524Y257500D02*
X-155610D01*
M02*
