G04*
G04 #@! TF.GenerationSoftware,Altium Limited,Altium Designer,19.1.9 (167)*
G04*
G04 Layer_Color=32896*
%FSLAX25Y25*%
%MOIN*%
G70*
G01*
G75*
%ADD11C,0.00787*%
G36*
X-353980Y238538D02*
X-353919Y238449D01*
X-353847Y238360D01*
X-353781Y238283D01*
X-353714Y238216D01*
X-353664Y238160D01*
X-353642Y238144D01*
X-353625Y238127D01*
X-353620Y238122D01*
X-353614Y238116D01*
X-353497Y238022D01*
X-353381Y237933D01*
X-353270Y237855D01*
X-353159Y237794D01*
X-353064Y237739D01*
X-353026Y237717D01*
X-352992Y237700D01*
X-352965Y237683D01*
X-352942Y237678D01*
X-352931Y237667D01*
X-352926D01*
Y237211D01*
X-353009Y237245D01*
X-353092Y237284D01*
X-353175Y237322D01*
X-353253Y237361D01*
X-353320Y237395D01*
X-353375Y237422D01*
X-353409Y237444D01*
X-353414Y237450D01*
X-353420D01*
X-353520Y237511D01*
X-353608Y237572D01*
X-353686Y237628D01*
X-353747Y237678D01*
X-353803Y237717D01*
X-353836Y237750D01*
X-353864Y237772D01*
X-353869Y237778D01*
Y234775D01*
X-354341D01*
Y238632D01*
X-354036D01*
X-353980Y238538D01*
D02*
G37*
G36*
X-6135Y327952D02*
X-6041Y327946D01*
X-5952Y327929D01*
X-5869Y327913D01*
X-5791Y327891D01*
X-5719Y327868D01*
X-5652Y327841D01*
X-5591Y327813D01*
X-5536Y327785D01*
X-5491Y327758D01*
X-5452Y327735D01*
X-5419Y327713D01*
X-5391Y327696D01*
X-5375Y327680D01*
X-5364Y327674D01*
X-5358Y327669D01*
X-5302Y327613D01*
X-5252Y327552D01*
X-5203Y327485D01*
X-5164Y327419D01*
X-5097Y327286D01*
X-5053Y327152D01*
X-5036Y327091D01*
X-5019Y327030D01*
X-5008Y326980D01*
X-4997Y326936D01*
X-4992Y326897D01*
Y326870D01*
X-4986Y326853D01*
Y326847D01*
X-5469Y326797D01*
X-5480Y326925D01*
X-5502Y327036D01*
X-5536Y327136D01*
X-5574Y327214D01*
X-5608Y327280D01*
X-5641Y327325D01*
X-5663Y327352D01*
X-5674Y327363D01*
X-5757Y327430D01*
X-5846Y327480D01*
X-5941Y327519D01*
X-6024Y327541D01*
X-6102Y327558D01*
X-6168Y327563D01*
X-6190Y327569D01*
X-6224D01*
X-6340Y327563D01*
X-6446Y327541D01*
X-6535Y327508D01*
X-6612Y327474D01*
X-6673Y327436D01*
X-6712Y327408D01*
X-6740Y327386D01*
X-6751Y327375D01*
X-6818Y327297D01*
X-6867Y327219D01*
X-6906Y327141D01*
X-6929Y327064D01*
X-6945Y327003D01*
X-6951Y326947D01*
X-6956Y326914D01*
Y326908D01*
Y326903D01*
X-6945Y326803D01*
X-6923Y326697D01*
X-6884Y326603D01*
X-6845Y326514D01*
X-6801Y326442D01*
X-6762Y326381D01*
X-6751Y326359D01*
X-6740Y326342D01*
X-6729Y326337D01*
Y326331D01*
X-6684Y326270D01*
X-6629Y326209D01*
X-6568Y326142D01*
X-6501Y326076D01*
X-6363Y325943D01*
X-6224Y325809D01*
X-6152Y325748D01*
X-6091Y325693D01*
X-6030Y325643D01*
X-5979Y325599D01*
X-5941Y325565D01*
X-5907Y325537D01*
X-5885Y325521D01*
X-5880Y325515D01*
X-5741Y325399D01*
X-5613Y325288D01*
X-5508Y325188D01*
X-5424Y325105D01*
X-5352Y325032D01*
X-5302Y324983D01*
X-5275Y324949D01*
X-5264Y324944D01*
Y324938D01*
X-5186Y324844D01*
X-5125Y324755D01*
X-5069Y324666D01*
X-5025Y324588D01*
X-4992Y324522D01*
X-4969Y324472D01*
X-4958Y324439D01*
X-4953Y324433D01*
Y324427D01*
X-4931Y324366D01*
X-4919Y324311D01*
X-4908Y324255D01*
X-4903Y324205D01*
X-4897Y324161D01*
Y324128D01*
Y324106D01*
Y324100D01*
X-7445D01*
Y324555D01*
X-5552D01*
X-5619Y324649D01*
X-5652Y324688D01*
X-5680Y324727D01*
X-5708Y324760D01*
X-5730Y324783D01*
X-5746Y324799D01*
X-5752Y324805D01*
X-5780Y324833D01*
X-5813Y324860D01*
X-5891Y324933D01*
X-5979Y325016D01*
X-6074Y325099D01*
X-6163Y325171D01*
X-6202Y325204D01*
X-6235Y325238D01*
X-6263Y325260D01*
X-6285Y325277D01*
X-6296Y325288D01*
X-6301Y325293D01*
X-6390Y325371D01*
X-6479Y325443D01*
X-6557Y325515D01*
X-6629Y325576D01*
X-6696Y325637D01*
X-6751Y325693D01*
X-6807Y325743D01*
X-6851Y325787D01*
X-6895Y325832D01*
X-6929Y325865D01*
X-6956Y325893D01*
X-6984Y325920D01*
X-7012Y325954D01*
X-7023Y325965D01*
X-7101Y326059D01*
X-7167Y326142D01*
X-7223Y326226D01*
X-7267Y326292D01*
X-7300Y326353D01*
X-7323Y326398D01*
X-7334Y326426D01*
X-7339Y326436D01*
X-7373Y326520D01*
X-7395Y326603D01*
X-7417Y326681D01*
X-7428Y326747D01*
X-7434Y326808D01*
X-7439Y326853D01*
Y326881D01*
Y326892D01*
X-7434Y326975D01*
X-7423Y327053D01*
X-7412Y327130D01*
X-7389Y327197D01*
X-7334Y327330D01*
X-7278Y327436D01*
X-7245Y327485D01*
X-7217Y327524D01*
X-7189Y327563D01*
X-7162Y327591D01*
X-7140Y327613D01*
X-7128Y327635D01*
X-7117Y327641D01*
X-7112Y327646D01*
X-7051Y327702D01*
X-6984Y327752D01*
X-6912Y327791D01*
X-6840Y327824D01*
X-6696Y327880D01*
X-6551Y327918D01*
X-6490Y327929D01*
X-6429Y327941D01*
X-6374Y327946D01*
X-6329Y327952D01*
X-6290Y327957D01*
X-6235D01*
X-6135Y327952D01*
D02*
G37*
G36*
X-3815Y325293D02*
Y325177D01*
X-3804Y325077D01*
X-3798Y324994D01*
X-3787Y324927D01*
X-3776Y324877D01*
X-3771Y324838D01*
X-3760Y324816D01*
Y324810D01*
X-3737Y324755D01*
X-3710Y324710D01*
X-3676Y324672D01*
X-3649Y324633D01*
X-3615Y324611D01*
X-3593Y324588D01*
X-3576Y324577D01*
X-3571Y324572D01*
X-3515Y324544D01*
X-3460Y324522D01*
X-3404Y324511D01*
X-3354Y324500D01*
X-3304Y324494D01*
X-3271Y324488D01*
X-3238D01*
X-3149Y324494D01*
X-3066Y324516D01*
X-2999Y324538D01*
X-2938Y324572D01*
X-2894Y324600D01*
X-2860Y324627D01*
X-2838Y324644D01*
X-2833Y324649D01*
X-2805Y324683D01*
X-2783Y324722D01*
X-2749Y324810D01*
X-2716Y324910D01*
X-2699Y325010D01*
X-2683Y325105D01*
Y325143D01*
X-2677Y325177D01*
X-2672Y325210D01*
Y325232D01*
Y325243D01*
Y325249D01*
X-2211Y325182D01*
Y325077D01*
X-2217Y324983D01*
X-2233Y324888D01*
X-2244Y324805D01*
X-2267Y324727D01*
X-2289Y324661D01*
X-2311Y324594D01*
X-2333Y324538D01*
X-2361Y324488D01*
X-2383Y324444D01*
X-2405Y324405D01*
X-2428Y324377D01*
X-2444Y324355D01*
X-2455Y324333D01*
X-2461Y324328D01*
X-2466Y324322D01*
X-2522Y324272D01*
X-2577Y324228D01*
X-2638Y324189D01*
X-2705Y324155D01*
X-2833Y324106D01*
X-2955Y324072D01*
X-3071Y324050D01*
X-3116Y324044D01*
X-3160Y324039D01*
X-3193Y324033D01*
X-3243D01*
X-3365Y324039D01*
X-3477Y324056D01*
X-3576Y324078D01*
X-3665Y324106D01*
X-3737Y324128D01*
X-3787Y324150D01*
X-3821Y324167D01*
X-3832Y324172D01*
X-3920Y324228D01*
X-3998Y324294D01*
X-4059Y324361D01*
X-4115Y324422D01*
X-4154Y324483D01*
X-4181Y324527D01*
X-4198Y324561D01*
X-4203Y324566D01*
Y324572D01*
X-4242Y324683D01*
X-4276Y324799D01*
X-4298Y324927D01*
X-4309Y325049D01*
X-4320Y325154D01*
Y325199D01*
X-4326Y325243D01*
Y325277D01*
Y325299D01*
Y325315D01*
Y325321D01*
Y327941D01*
X-3815D01*
Y325293D01*
D02*
G37*
D11*
X-30911Y320185D02*
X-7289D01*
X-5714D02*
X-2761D01*
X-7781Y322547D02*
X-7289Y320185D01*
X-5714D02*
X-5222Y322547D01*
X-7781D02*
X-5222D01*
X-35439Y320185D02*
X-32486D01*
X-32978Y322547D02*
X-32486Y320185D01*
X-30911D02*
X-30419Y322547D01*
X-32978D02*
X-30419D01*
X-35439Y280815D02*
X-2761D01*
Y320185D01*
X-35439Y280815D02*
Y320185D01*
X-364016Y234921D02*
Y236850D01*
X-384016Y234921D02*
Y236850D01*
X-364016D01*
X-384016Y156850D02*
X-364016D01*
Y158780D01*
X-384016Y156850D02*
Y158780D01*
X-386221Y236038D02*
Y238661D01*
X-388844Y236038D01*
X-389500D01*
X-390156Y236694D01*
Y238005D01*
X-389500Y238661D01*
X-358268Y237087D02*
Y235775D01*
Y236431D01*
X-362204D01*
X-361547Y237087D01*
X-358268Y157795D02*
Y156483D01*
Y157139D01*
X-362204D01*
X-361547Y157795D01*
X-362204Y151892D02*
Y154516D01*
X-360236D01*
X-360892Y153204D01*
Y152548D01*
X-360236Y151892D01*
X-358924D01*
X-358268Y152548D01*
Y153859D01*
X-358924Y154516D01*
X-386221Y157795D02*
Y156483D01*
Y157139D01*
X-390156D01*
X-389500Y157795D01*
X-390156Y151892D02*
X-389500Y153204D01*
X-388188Y154516D01*
X-386876D01*
X-386221Y153859D01*
Y152548D01*
X-386876Y151892D01*
X-387532D01*
X-388188Y152548D01*
Y154516D01*
M02*
