M48
;Layer_Color=9474304
;FILE_FORMAT=2:5
INCH,TZ
;TYPE=PLATED
T1F00S00C0.01181
T2F00S00C0.02800
T3F00S00C0.03543
T4F00S00C0.04331
T5F00S00C0.04724
T6F00S00C0.05118
T7F00S00C0.06693
T8F00S00C0.12008
;TYPE=NON_PLATED
T9F00S00C0.09843
T10F00S00C0.12598
T11F00S00C0.13780
%
T01
X-79500Y79100
X-82800Y89100
X-72700Y91700
X-65500Y93300
X-62000Y107300
X-71000Y118100
Y124050
Y127950
X-64005Y130500
X-52155
X-37700Y129900
X-12000Y127900
Y115300
Y109000
Y102700
Y96400
X-11900Y93200
X-8100Y89100
X-12000Y83800
X-48400Y79500
X-56100Y78600
X-84800Y100500
X-83500Y134700
X-79800Y135900
X-89700Y131300
X-94200Y123600
X-100400Y114700
X-104375Y109024
X-97000Y105300
X-91100Y104100
X-113500Y101500
X-116800Y117500
X-153100Y117154
X-156937Y121237
X-160300Y123400
Y128200
X-156937Y129500
X-153100Y128889
X-257100Y176500
X-257800Y192400
X-250300Y207100
X-270300Y209000
X-269800Y220900
X-260100Y221900
X-290100Y217200
X-301700Y213800
X-310200Y220400
X-300000Y227900
X-294000Y236900
X-290500Y240400
X-282700Y200500
X-287400Y194300
X-279100Y189000
X-275200Y186400
X-274100Y179800
X-289100Y175600
X-292800Y178200
X-283400Y168200
X-305400Y185400
X-299700Y191100
X-352158Y236825
X-240100Y194200
X-244500Y185800
X-112320Y203175
X-105700Y165400
X-115900Y290500
X-79200Y153549
X-78078Y146195
X-73000Y147500
X-63800Y150300
X-52800Y143600
X-47700Y147700
X-38500Y150275
X-28700Y147700
X-18500Y153500
X-14949Y140500
X-16900Y195900
X-39500Y326800
X-57800Y327000
T02
X-260100Y246000
X-198100
X-62031Y279131
X-47100Y279600
X-103600Y301700
T03
X-76555Y168937
X-66555
X-56555
X-46555
X-51555Y178937
X-61555
X-71555
X-41555
X-44055Y220118
X-34252
X-74055
X-83859
T04
X-379016Y161850
Y171850
Y181850
Y191850
Y201850
Y211850
X-369016
Y221850
X-379016
Y231850
X-369016
Y201850
Y191850
Y181850
Y171850
Y161850
T05
X-182756Y175039
Y185945
Y196850
Y207756
Y218661
X-171575Y213209
Y202303
Y191398
Y180492
T06
X-19100Y290657
Y310343
T07
X-90158Y188780
X-27953
T08
X-177165Y147658
Y246043
T09
X-132006Y194415
X-112320
Y223942
X-132006
T10
X-81555Y203937
X-36555
T11
X-137795Y78740
X-107500Y147600
X-15700Y244800
X-137795Y314961
M30
