G04*
G04 #@! TF.GenerationSoftware,Altium Limited,Altium Designer,19.1.9 (167)*
G04*
G04 Layer_Physical_Order=1*
G04 Layer_Color=255*
%FSLAX25Y25*%
%MOIN*%
G70*
G01*
G75*
%ADD10C,0.01000*%
%ADD14C,0.00600*%
%ADD50R,0.05512X0.04724*%
G04:AMPARAMS|DCode=51|XSize=66.93mil|YSize=94.49mil|CornerRadius=0mil|HoleSize=0mil|Usage=FLASHONLY|Rotation=225.000|XOffset=0mil|YOffset=0mil|HoleType=Round|Shape=Rectangle|*
%AMROTATEDRECTD51*
4,1,4,-0.00974,0.05707,0.05707,-0.00974,0.00974,-0.05707,-0.05707,0.00974,-0.00974,0.05707,0.0*
%
%ADD51ROTATEDRECTD51*%

%ADD52R,0.02362X0.03543*%
%ADD53R,0.03937X0.02953*%
%ADD54R,0.03347X0.03347*%
%ADD55R,0.03347X0.03347*%
%ADD56R,0.02165X0.02165*%
%ADD57P,0.04733X4X180.0*%
%ADD58P,0.04733X4X270.0*%
%ADD59R,0.03150X0.03150*%
%ADD60R,0.05800X0.01100*%
%ADD61R,0.01100X0.05800*%
G04:AMPARAMS|DCode=62|XSize=11mil|YSize=58mil|CornerRadius=0mil|HoleSize=0mil|Usage=FLASHONLY|Rotation=135.000|XOffset=0mil|YOffset=0mil|HoleType=Round|Shape=Rectangle|*
%AMROTATEDRECTD62*
4,1,4,0.02439,0.01662,-0.01662,-0.02439,-0.02439,-0.01662,0.01662,0.02439,0.02439,0.01662,0.0*
%
%ADD62ROTATEDRECTD62*%

G04:AMPARAMS|DCode=63|XSize=11mil|YSize=58mil|CornerRadius=0mil|HoleSize=0mil|Usage=FLASHONLY|Rotation=225.000|XOffset=0mil|YOffset=0mil|HoleType=Round|Shape=Rectangle|*
%AMROTATEDRECTD63*
4,1,4,-0.01662,0.02439,0.02439,-0.01662,0.01662,-0.02439,-0.02439,0.01662,-0.01662,0.02439,0.0*
%
%ADD63ROTATEDRECTD63*%

%ADD64R,0.05158X0.03661*%
%ADD65R,0.05158X0.12756*%
%ADD66R,0.03543X0.03937*%
%ADD67R,0.06299X0.10236*%
%ADD68C,0.02500*%
%ADD69C,0.02000*%
%ADD70C,0.03000*%
%ADD71C,0.06496*%
%ADD72R,0.06496X0.06496*%
%ADD73R,0.07677X0.07677*%
%ADD74C,0.07677*%
%ADD75C,0.05512*%
%ADD76R,0.05512X0.05512*%
%ADD77C,0.09843*%
%ADD78C,0.12598*%
%ADD79C,0.07087*%
%ADD80R,0.07087X0.07087*%
%ADD81C,0.18110*%
%ADD82C,0.23622*%
%ADD83C,0.06000*%
%ADD84C,0.05000*%
%ADD85C,0.02362*%
G36*
X-45900Y315200D02*
X-40100D01*
X-40100Y296122D01*
X-55067Y296122D01*
X-58945Y300000D01*
X-69000D01*
Y306280D01*
X-68380Y306900D01*
X-50600Y306900D01*
Y320800D01*
X-45900D01*
Y315200D01*
D02*
G37*
G36*
X-85000Y302000D02*
X-84598Y301598D01*
X-84885Y301178D01*
X-85251Y301178D01*
X-87869D01*
Y294300D01*
X-84790D01*
Y300688D01*
X-84790Y301083D01*
X-84370Y301370D01*
X-83500Y300500D01*
X-83500Y279594D01*
X-91300Y271795D01*
X-107794D01*
X-109500Y273500D01*
X-109500Y276714D01*
X-107750D01*
Y272595D01*
X-104100D01*
Y278713D01*
Y284832D01*
X-107750D01*
Y280486D01*
X-109500D01*
X-109500Y284201D01*
X-107263Y286438D01*
X-95562Y286438D01*
X-93894Y288106D01*
X-93894Y300505D01*
X-92400Y302000D01*
X-85000Y302000D01*
D02*
G37*
%LPC*%
G36*
X-88869Y301178D02*
X-91948D01*
Y294300D01*
X-88869D01*
Y301178D01*
D02*
G37*
G36*
X-84790Y293300D02*
X-87869D01*
Y286422D01*
X-84790D01*
Y293300D01*
D02*
G37*
G36*
X-88869D02*
X-91948D01*
Y286422D01*
X-88869D01*
Y293300D01*
D02*
G37*
G36*
X-99450Y284832D02*
X-103100D01*
Y279213D01*
X-99450D01*
Y284832D01*
D02*
G37*
G36*
Y278213D02*
X-103100D01*
Y272595D01*
X-99450D01*
Y278213D01*
D02*
G37*
%LPD*%
D10*
X-60300Y159651D02*
Y161800D01*
X-61555Y163055D02*
X-60300Y161800D01*
X-61555Y163055D02*
Y178937D01*
X-79500Y79100D02*
Y82749D01*
X-79400Y82849D01*
X-79500Y82949D02*
X-79400Y82849D01*
X-72700Y89151D02*
Y91700D01*
X-72800Y89051D02*
X-72700Y89151D01*
X-56100Y78600D02*
Y82607D01*
X-48400Y79500D02*
Y82749D01*
X-48500Y82849D02*
X-48400Y82749D01*
X-65500Y90039D02*
Y93300D01*
Y90039D02*
X-64761Y89300D01*
X-113651Y117500D02*
X-113600Y117449D01*
X-116800Y117500D02*
X-113651D01*
X-113600Y104749D02*
X-113500Y104649D01*
Y101500D02*
Y104649D01*
X-156300Y230163D02*
X-133217Y207080D01*
X-156300Y230100D02*
Y230163D01*
X-47700Y147700D02*
Y153549D01*
X-89700Y128251D02*
Y131300D01*
X-89800Y128151D02*
X-89700Y128251D01*
X-83500Y131751D02*
Y134700D01*
Y131751D02*
X-83400Y131651D01*
X-73000Y144949D02*
X-72151Y144100D01*
X-73000Y144949D02*
Y147500D01*
X-72933D01*
X-71733Y148700D01*
X-68351D01*
X-84249Y125100D02*
X-83349Y126000D01*
X-89400Y122449D02*
X-89051Y122100D01*
X-78078Y143829D02*
X-73749Y139500D01*
X-78078Y143829D02*
Y146195D01*
X-79851Y139500D02*
X-79800Y139449D01*
Y135900D02*
Y139449D01*
X-223186Y132600D02*
X-164700D01*
X-266855Y176269D02*
X-223186Y132600D01*
X-164700D02*
X-160300Y128200D01*
X-221958Y134200D02*
X-161637D01*
X-265441Y177683D02*
X-221958Y134200D01*
X-161637D02*
X-156937Y129500D01*
X-160011Y135800D02*
X-153100Y128889D01*
X-220730Y135800D02*
X-160011D01*
X-264027Y179097D02*
X-220730Y135800D01*
X-262757Y219243D02*
X-260100Y221900D01*
X-262757Y219116D02*
Y219243D01*
X-295957Y211028D02*
Y211442D01*
X-280943Y170384D02*
X-276401Y174925D01*
X-283315Y168200D02*
X-280358Y171158D01*
X-283400Y168200D02*
X-283315D01*
X-374668Y206198D02*
X-320461D01*
X-379016Y201850D02*
X-374668Y206198D01*
X-320461D02*
X-297063Y182800D01*
X-74300Y94200D02*
X-68200D01*
X-79425Y89075D02*
X-74300Y94200D01*
X-28700Y147700D02*
Y153049D01*
X-28800Y153149D02*
X-28700Y153049D01*
X-25600Y147574D02*
Y156551D01*
X-49350Y131550D02*
X-41624D01*
X-25600Y147574D01*
X-28800Y153149D02*
X-28600Y153349D01*
X-28800Y153549D02*
X-28600Y153349D01*
X-54155Y142245D02*
X-52800Y143600D01*
X-56055Y135700D02*
Y151494D01*
X-54155Y135700D02*
Y142245D01*
X-56055Y151494D02*
X-54000Y153549D01*
X-38500Y150275D02*
Y153204D01*
X-38400Y153305D01*
X-58055Y135700D02*
Y151304D01*
X-16900Y191951D02*
Y195900D01*
X-9800Y191851D02*
Y196600D01*
X-24800Y211600D02*
X-9800Y196600D01*
X-75340Y211600D02*
X-24800D01*
X-83859Y220118D02*
X-75340Y211600D01*
X-122561Y235340D02*
X-115372Y235400D01*
X-122703Y235339D02*
X-122561Y235340D01*
X-127361Y235300D02*
X-122703Y235339D01*
X-128954Y235400D02*
X-127361Y235300D01*
X-94249Y123551D02*
X-94200Y123600D01*
X-100400Y114700D02*
X-97151D01*
X-11900Y93149D02*
Y93200D01*
X-14949Y90100D02*
X-11900Y93149D01*
X-42455Y129900D02*
X-37700D01*
X-61300Y319551D02*
Y323000D01*
Y319551D02*
X-61200Y319451D01*
X-61400Y319251D02*
X-61200Y319451D01*
X-43000Y319351D02*
Y322800D01*
Y319351D02*
X-42900Y319251D01*
X-289000Y246000D02*
X-260100D01*
X-304358Y230643D02*
X-289000Y246000D01*
X-304358Y219243D02*
Y230643D01*
X-257100Y176500D02*
X-192201D01*
X-97100Y114751D02*
X-95151Y116700D01*
X-82200D01*
X-79700Y114200D01*
X-83349Y126000D02*
X-75655D01*
X-92700Y125100D02*
X-84249D01*
X-94200Y123600D02*
X-92700Y125100D01*
X-94200Y123600D02*
X-92649Y122049D01*
X-89800D01*
X-83349Y126000D02*
X-83300Y126049D01*
X-89051Y122100D02*
X-75655D01*
X-104575Y117775D02*
X-103826Y118524D01*
X-104475Y118475D02*
X-104350Y118600D01*
X-97151Y114700D02*
X-97100Y114751D01*
X-84800Y100500D02*
Y104049D01*
X-91200Y107449D02*
X-91100Y107349D01*
Y104100D02*
Y107349D01*
X-97100Y108649D02*
X-97000Y108549D01*
Y105300D02*
Y108549D01*
X-104475Y112373D02*
X-104375Y112273D01*
Y109024D02*
Y112273D01*
X-75655Y118100D02*
X-71000D01*
X-71050Y124000D02*
X-71000Y124050D01*
X-75655Y124000D02*
X-71050D01*
Y128000D02*
X-71000Y127950D01*
X-75655Y128000D02*
X-71050D01*
X-52155Y130500D02*
Y135700D01*
X-64005Y130500D02*
X-63955Y130550D01*
Y135700D01*
X-38644Y153549D02*
X-38400Y153305D01*
X-14949Y96400D02*
X-12000D01*
X-14949Y127900D02*
X-12000D01*
X-14949Y115300D02*
X-12000D01*
X-14949Y109000D02*
X-12000D01*
X-14949Y102700D02*
X-12000D01*
X-206993Y183519D02*
X-182756Y207756D01*
X-255683Y187441D02*
X-251761Y183519D01*
X-246443Y187742D02*
X-244500Y185800D01*
X-251761Y183519D02*
X-206993D01*
X-39038Y108250D02*
X-36000Y105212D01*
Y92449D02*
Y105212D01*
X-42455Y108300D02*
X-42405Y108250D01*
X-39038D01*
X-62055Y107245D02*
X-62000Y107300D01*
X-62055Y102500D02*
Y107245D01*
X-73549Y139700D02*
X-68549D01*
X-67963Y139114D01*
Y135708D02*
Y139114D01*
X-73749Y139500D02*
X-73549Y139700D01*
X-67963Y135708D02*
X-67955Y135700D01*
X-62249Y148700D02*
X-62055Y148506D01*
Y135700D02*
Y148506D01*
X-66049Y144100D02*
X-65955Y144006D01*
Y135700D02*
Y144006D01*
X-81851Y113551D02*
X-80500Y112200D01*
X-91200Y113551D02*
X-81851D01*
X-104350Y118600D02*
X-81837D01*
X-79337Y116100D01*
X-75655D01*
X-79700Y114200D02*
X-75655D01*
X-80500Y112200D02*
X-75655D01*
X-84800Y110151D02*
X-84751Y110200D01*
X-75655D01*
X-69905Y99695D02*
Y102450D01*
X-69855Y102500D01*
X-68200Y94200D02*
X-63955Y98445D01*
Y102500D01*
X-56100Y89300D02*
X-55751Y88951D01*
X-49600D01*
X-65103Y82949D02*
X-64761Y82607D01*
X-71100Y82949D02*
X-65103D01*
X-60400Y86968D02*
Y92700D01*
X-62506Y84863D02*
X-60400Y86968D01*
X-62506Y84469D02*
Y84863D01*
X-64368Y82607D02*
X-62506Y84469D01*
X-64761Y82607D02*
X-64368D01*
X-62600Y94900D02*
X-60400Y92700D01*
X-62600Y94900D02*
X-60055Y97445D01*
Y102500D01*
X-58000Y94900D02*
X-56100Y93000D01*
Y89300D02*
Y93000D01*
X-58055Y94955D02*
X-58000Y94900D01*
X-58055Y94955D02*
Y102500D01*
X-27200Y102549D02*
X-21051Y96400D01*
X-27200Y102549D02*
Y105400D01*
X-36000Y92449D02*
X-21051Y77500D01*
X-32900Y95649D02*
X-21051Y83800D01*
X-32900Y95649D02*
Y105200D01*
X-30200Y99249D02*
X-21051Y90100D01*
X-30200Y99249D02*
Y105200D01*
X-37900Y110200D02*
X-32900Y105200D01*
X-42455Y110200D02*
X-37900D01*
X-37200Y112200D02*
X-30200Y105200D01*
X-42455Y112200D02*
X-37200D01*
X-36000Y114200D02*
X-27200Y105400D01*
X-42455Y114200D02*
X-36000D01*
X-34451Y116100D02*
X-21051Y102700D01*
X-42455Y116100D02*
X-34451D01*
X-21051Y115300D02*
Y121600D01*
X-30151Y118100D02*
X-21051Y109000D01*
X-42455Y118100D02*
X-30151D01*
X-22551Y120100D02*
X-21051Y121600D01*
X-42455Y120100D02*
X-22551D01*
X-26851Y122100D02*
X-21051Y127900D01*
X-42455Y122100D02*
X-26851D01*
X-37551Y124000D02*
X-21051Y140500D01*
X-42455Y124000D02*
X-37551D01*
X-21051Y140500D02*
Y146800D01*
Y127900D02*
Y134200D01*
X-25600Y156551D02*
X-22500Y159651D01*
X-42455Y110200D02*
X-42405Y110150D01*
X-44700Y141700D02*
Y156351D01*
X-48255Y138145D02*
X-44700Y141700D01*
X-48255Y135700D02*
Y138145D01*
X-60300Y153549D02*
X-58055Y151304D01*
X-44700Y156351D02*
X-41400Y159651D01*
X-50105Y132305D02*
X-49350Y131550D01*
X-50105Y132305D02*
Y135650D01*
X-50155Y135700D02*
X-50105Y135650D01*
X-109269Y235400D02*
X-104800Y230931D01*
Y219849D02*
Y230931D01*
X-112320Y212328D02*
X-104800Y219849D01*
X-41555Y178707D02*
X-22500Y159651D01*
X-41555Y178707D02*
Y178937D01*
X-35100Y159651D02*
X-28800D01*
X-35100D02*
Y162935D01*
X-51102Y178937D02*
X-35100Y162935D01*
X-51555Y178937D02*
X-51102D01*
X-41400Y159651D02*
Y163782D01*
X-46555Y168937D02*
X-41400Y163782D01*
X-54000Y159651D02*
X-47700D01*
X-82449Y156600D02*
X-57051D01*
X-85500Y153549D02*
X-82449Y156600D01*
X-57051D02*
X-54000Y153549D01*
X-91800Y163705D02*
X-76568Y178937D01*
X-91800Y159651D02*
Y163705D01*
X-76568Y178937D02*
X-71555D01*
X-60300Y159651D02*
X-54000D01*
X-66600Y153549D02*
X-60300D01*
X-72900D02*
X-66600D01*
X-79200Y159651D02*
X-72900D01*
X-85500D02*
X-79200D01*
X-91800Y153549D02*
X-85500D01*
X-66600Y161580D02*
X-66555Y161624D01*
Y159696D02*
Y168937D01*
X-139000Y219323D02*
Y231457D01*
Y219323D02*
X-132006Y212328D01*
X-139000Y231457D02*
X-135057Y235400D01*
X-268900Y230100D02*
X-156300D01*
X-185102Y191398D02*
X-171575D01*
X-196956Y179544D02*
X-185102Y191398D01*
X-258887Y179544D02*
X-196956D01*
X-262683Y208159D02*
X-262656D01*
X-256958Y213858D01*
X-246657Y187742D02*
X-246443D01*
X-297637Y203900D02*
X-291729D01*
X-324500Y230763D02*
X-297637Y203900D01*
X-324500Y230763D02*
Y236749D01*
X-352158Y236825D02*
X-352033Y236700D01*
X-339051D01*
X-63000Y278161D02*
X-62031Y279131D01*
X-277155Y183829D02*
X-266071D01*
X-273357Y189000D02*
X-258441Y203917D01*
X-287400Y194074D02*
X-277155Y183829D01*
X-287400Y194074D02*
Y194300D01*
X-279100Y189000D02*
X-273357D01*
X-275200Y186400D02*
X-273270D01*
X-257097Y202573D01*
X-266071Y183829D02*
X-262683Y180441D01*
X-291729Y203900D02*
X-288988Y201159D01*
X-292957Y202300D02*
X-290402Y199745D01*
X-298837Y202300D02*
X-292957D01*
X-328388Y231850D02*
X-298837Y202300D01*
X-294044Y200700D02*
X-291745Y198401D01*
X-299500Y200700D02*
X-294044D01*
X-325400Y226600D02*
X-299500Y200700D01*
X-323326Y221850D02*
X-291675Y190199D01*
X-295957Y211028D02*
X-287503Y202573D01*
X-369016Y221850D02*
X-323326D01*
X-374266Y226600D02*
X-325400D01*
X-369016Y231850D02*
X-328388D01*
X-288988Y201159D02*
X-288917D01*
X-291745Y198401D02*
X-291675D01*
X-290402Y199745D02*
X-290331D01*
X-304358Y212883D02*
Y219243D01*
Y212883D02*
X-302717Y211243D01*
X-296158D01*
X-282743Y200500D02*
X-282700D01*
X-286159Y203917D02*
X-282743Y200500D01*
X-318000Y228200D02*
X-310200Y220400D01*
X-318000Y228200D02*
Y236749D01*
X-242243Y192058D02*
X-240100Y194200D01*
X-242342Y192058D02*
X-242243D01*
X-252925Y190199D02*
X-252856D01*
X-250400Y187742D01*
X-246657D01*
X-349200Y211824D02*
X-323824D01*
X-291742Y215558D02*
X-290100Y217200D01*
X-300000Y225259D02*
Y227900D01*
X-300043Y225217D02*
X-300000Y225259D01*
X-300043Y223557D02*
Y225217D01*
X-192201Y176500D02*
X-182756Y185945D01*
X-349873Y178200D02*
X-292800D01*
X-349975Y178302D02*
X-349873Y178200D01*
X-258441Y203917D02*
X-258370D01*
X-336500Y175600D02*
X-289100D01*
X-345300Y166800D02*
X-336500Y175600D01*
X-261198Y181855D02*
X-258887Y179544D01*
X-257659Y181144D02*
X-198462D01*
X-259784Y183269D02*
X-257659Y181144D01*
X-259855Y183269D02*
X-259784D01*
X-267458Y223242D02*
Y223557D01*
X-269800Y220900D02*
X-267458Y223242D01*
X-268199Y213675D02*
X-262757Y219116D01*
X-252642Y209542D02*
X-250300Y207200D01*
Y207100D02*
Y207200D01*
X-280600Y218400D02*
X-268900Y230100D01*
X-280600Y215187D02*
Y218400D01*
Y215187D02*
X-277745Y212331D01*
X-105746Y165354D02*
X-105700Y165400D01*
X-110400Y165354D02*
X-105746D01*
X-140341Y185945D02*
X-134514Y180118D01*
X-182756Y185945D02*
X-140341D01*
X-134514Y180118D02*
X-134022D01*
X-349975Y195304D02*
X-315304D01*
X-305400Y185400D01*
X-318376Y201850D02*
X-297726Y181200D01*
X-323824Y211824D02*
X-296700Y184700D01*
X-369016Y201850D02*
X-318376D01*
X-368990Y211824D02*
X-349200D01*
X-349975Y186803D02*
Y189202D01*
Y184404D02*
Y186803D01*
X-353800Y186800D02*
X-350000D01*
X-287076Y210490D02*
Y223076D01*
Y210490D02*
X-283331Y206745D01*
X-288050Y224050D02*
X-287076Y223076D01*
X-284829Y211071D02*
X-281917Y208159D01*
X-284829Y217671D02*
X-276776Y225725D01*
X-284829Y211071D02*
Y217671D01*
X-291843Y215558D02*
X-291742D01*
X-300043Y223557D02*
X-295942Y219458D01*
Y215442D02*
Y219458D01*
X-289000Y208500D02*
X-287914D01*
X-295942Y215442D02*
X-289000Y208500D01*
X-287914D02*
X-284745Y205331D01*
X-132106Y205928D02*
X-132006Y206029D01*
X-171575Y202303D02*
Y203375D01*
X-181100Y212900D02*
X-171575Y203375D01*
X-238426Y212900D02*
X-181100D01*
X-198462Y181144D02*
X-182756Y196850D01*
X-326349Y244700D02*
X-324500Y242851D01*
X-379800Y244700D02*
X-326349D01*
X-385600Y238900D02*
X-379800Y244700D01*
X-370649Y241500D02*
X-369016Y239867D01*
Y231850D02*
Y239867D01*
X-379016Y231850D02*
Y239235D01*
X-376751Y241500D01*
X-324549Y236700D02*
X-324500Y236749D01*
X-332949Y236700D02*
X-324549D01*
X-297726Y181200D02*
X-289713D01*
X-297063Y182800D02*
X-290730D01*
X-296700Y184700D02*
X-291729D01*
X-325600Y217000D02*
X-299700Y191100D01*
X-294900Y186300D02*
X-292886D01*
X-299700Y191100D02*
X-294900Y186300D01*
X-336449Y217000D02*
X-325600D01*
X-277745Y176269D02*
X-274214Y179800D01*
X-274100D01*
X-257800Y192386D02*
Y192400D01*
Y192386D02*
X-254269Y188855D01*
X-270300Y209000D02*
X-270186D01*
X-266855Y212331D01*
X-252925Y198401D02*
X-238426Y212900D01*
X-261269Y181855D02*
X-261198D01*
X-289713Y181200D02*
X-286230Y184683D01*
X-290730Y182800D02*
X-287503Y186027D01*
X-291729Y184700D02*
X-288988Y187441D01*
X-288917D01*
X-292886Y186300D02*
X-290331Y188855D01*
X-349200Y217000D02*
X-342551D01*
X-373866D02*
X-349200D01*
X-379016Y211850D02*
X-373866Y217000D01*
X-369016Y211850D02*
X-368990Y211824D01*
X-385600Y198435D02*
Y238900D01*
Y198435D02*
X-379016Y191850D01*
X-373965Y166800D02*
X-345300D01*
X-379016Y171850D02*
X-373965Y166800D01*
X-317751Y242851D02*
X-317700Y242800D01*
X-324500Y242851D02*
X-317751D01*
X-276043Y166842D02*
X-275758D01*
X-262789Y220014D02*
X-262771D01*
X-294000Y236900D02*
X-291200Y234100D01*
X-287757Y237442D02*
Y237657D01*
X-290500Y240400D02*
X-287757Y237657D01*
X-276776Y225725D02*
Y233376D01*
X-277750Y234350D02*
X-276776Y233376D01*
X-277750Y234350D02*
Y236065D01*
X-283442Y241757D02*
X-277750Y236065D01*
X-289780Y224050D02*
X-288050D01*
X-295515Y229785D02*
X-289780Y224050D01*
X-266855Y176198D02*
Y176269D01*
X-280943Y170343D02*
Y170384D01*
X-286230Y184683D02*
X-286159D01*
X-374066Y186800D02*
X-353800D01*
X-379016Y221850D02*
X-374266Y226600D01*
X-379016Y181850D02*
X-374066Y186800D01*
D14*
X-39900Y78269D02*
Y92288D01*
X-46569Y71600D02*
X-39900Y78269D01*
X-107300Y71600D02*
X-46569D01*
X-106803Y72800D02*
X-47066D01*
X-41100Y78766D02*
Y91791D01*
X-47066Y72800D02*
X-41100Y78766D01*
X-106000Y74000D02*
X-47563D01*
X-42300Y79263D02*
Y91294D01*
X-47563Y74000D02*
X-42300Y79263D01*
X-43500Y79760D02*
Y90797D01*
X-48060Y75200D02*
X-43500Y79760D01*
X-105397Y75200D02*
X-48060D01*
X-44700Y80257D02*
Y90300D01*
X-104900Y76400D02*
X-48557D01*
X-44700Y80257D01*
X-151156Y117154D02*
X-106803Y72800D01*
X-153100Y117154D02*
X-151156D01*
X-153237Y121237D02*
X-106000Y74000D01*
X-153597Y123400D02*
X-105397Y75200D01*
X-154400Y125900D02*
X-104900Y76400D01*
X-156937Y121237D02*
X-153237D01*
X-160300Y123400D02*
X-153597D01*
X-163000Y125900D02*
X-154400D01*
X-150000Y114300D02*
X-107300Y71600D01*
X-154143Y114300D02*
X-150000D01*
X-162381Y122538D02*
X-154143Y114300D01*
X-162381Y122538D02*
Y122681D01*
X-169700Y130000D02*
X-162381Y122681D01*
X-224971Y130000D02*
X-169700D01*
X-286822Y167722D02*
X-278800Y159700D01*
X-254671D01*
X-286822Y167722D02*
Y175536D01*
X-281917Y180441D01*
X-254671Y159700D02*
X-224971Y130000D01*
X-224474Y131200D02*
X-168300D01*
X-268199Y174925D02*
X-224474Y131200D01*
X-168300D02*
X-163000Y125900D01*
X-46200Y96800D02*
X-44412D01*
X-48255Y98855D02*
X-46200Y96800D01*
X-48255Y98855D02*
Y102500D01*
X-44412Y96800D02*
X-39900Y92288D01*
X-44909Y95600D02*
X-41100Y91791D01*
X-47055Y95600D02*
X-44909D01*
X-45406Y94400D02*
X-42300Y91294D01*
X-48100Y94400D02*
X-45406D01*
X-45903Y93200D02*
X-43500Y90797D01*
X-49294Y93200D02*
X-45903D01*
X-46400Y92000D02*
X-44700Y90300D01*
X-49791Y92000D02*
X-46400D01*
X-50405Y109700D02*
X-38600Y97895D01*
Y88732D02*
Y97895D01*
Y88732D02*
X-23594Y73727D01*
X-49908Y110900D02*
X-37400Y98392D01*
Y89230D02*
Y98392D01*
Y89230D02*
X-23097Y74927D01*
X-52155Y98455D02*
X-48100Y94400D01*
X-52155Y98455D02*
Y102500D01*
X-50155Y98700D02*
X-47055Y95600D01*
X-50155Y98700D02*
Y102500D01*
X-17000Y191851D02*
X-16900Y191951D01*
X-22230Y213600D02*
X-6019Y197389D01*
X-21733Y214800D02*
X-4819Y197886D01*
X-67537Y213600D02*
X-22230D01*
X-6019Y80494D02*
Y197389D01*
X-38737Y214800D02*
X-21733D01*
X-4819Y79997D02*
Y197886D01*
X-11586Y74927D02*
X-6019Y80494D01*
X-11089Y73727D02*
X-4819Y79997D01*
X-23594Y73727D02*
X-11089D01*
X-23097Y74927D02*
X-11586D01*
X-44055Y220118D02*
X-38737Y214800D01*
X-56055Y98264D02*
X-49791Y92000D01*
X-56055Y98264D02*
Y102500D01*
X-54155Y98061D02*
X-49294Y93200D01*
X-54155Y98061D02*
Y102500D01*
X-62700Y109700D02*
X-50405D01*
X-83859Y220118D02*
X-83684Y220293D01*
X-34427Y220293D02*
X-34252Y220118D01*
X-65900Y110900D02*
X-49908D01*
X-69855Y106945D02*
X-65900Y110900D01*
X-65955Y106445D02*
X-62700Y109700D01*
X-65955Y102500D02*
Y106445D01*
X-69855Y102500D02*
Y106945D01*
X-74055Y220118D02*
X-67537Y213600D01*
D50*
X-64761Y89300D02*
D03*
X-56100D02*
D03*
X-64761Y82607D02*
D03*
X-56100D02*
D03*
D51*
X-288050Y224050D02*
D03*
X-277750Y234350D02*
D03*
D52*
X-55400Y318800D02*
D03*
X-47920D02*
D03*
X-51660Y327855D02*
D03*
D53*
X-110400Y165354D02*
D03*
Y180118D02*
D03*
X-134022Y165354D02*
D03*
Y180118D02*
D03*
D54*
X-84800Y110151D02*
D03*
Y104049D02*
D03*
X-54000Y159651D02*
D03*
Y153549D02*
D03*
X-85500Y159651D02*
D03*
Y153549D02*
D03*
X-60300D02*
D03*
Y159651D02*
D03*
X-72900Y153549D02*
D03*
Y159651D02*
D03*
X-17000Y185749D02*
D03*
Y191851D02*
D03*
X-35100Y153549D02*
D03*
Y159651D02*
D03*
X-9800Y185749D02*
D03*
Y191851D02*
D03*
X-41400Y153549D02*
D03*
Y159651D02*
D03*
X-22500Y153549D02*
D03*
Y159651D02*
D03*
X-349975Y178302D02*
D03*
Y184404D02*
D03*
Y195304D02*
D03*
Y189202D02*
D03*
X-318000Y236749D02*
D03*
Y242851D02*
D03*
X-324500Y236749D02*
D03*
Y242851D02*
D03*
X-349200Y217751D02*
D03*
Y211649D02*
D03*
X-61400Y313149D02*
D03*
Y319251D02*
D03*
X-104475Y118475D02*
D03*
Y112373D02*
D03*
X-83400Y125549D02*
D03*
Y131651D02*
D03*
X-89800Y122049D02*
D03*
Y128151D02*
D03*
X-97100Y114751D02*
D03*
Y108649D02*
D03*
X-91200Y113551D02*
D03*
Y107449D02*
D03*
X-79500Y89051D02*
D03*
Y82949D02*
D03*
X-72800Y89051D02*
D03*
Y82949D02*
D03*
X-48500Y82849D02*
D03*
Y88951D02*
D03*
X-91800Y153549D02*
D03*
Y159651D02*
D03*
X-47700D02*
D03*
Y153549D02*
D03*
X-79200D02*
D03*
Y159651D02*
D03*
X-28800Y153549D02*
D03*
Y159651D02*
D03*
X-113600Y123551D02*
D03*
Y117449D02*
D03*
X-66600Y153549D02*
D03*
Y159651D02*
D03*
X-113600Y110851D02*
D03*
Y104749D02*
D03*
X-116000Y280949D02*
D03*
Y287051D02*
D03*
X-42900Y313149D02*
D03*
Y319251D02*
D03*
D55*
X-66049Y144100D02*
D03*
X-72151D02*
D03*
X-21051Y115300D02*
D03*
X-14949D02*
D03*
X-21051Y127900D02*
D03*
X-14949D02*
D03*
X-21051Y140500D02*
D03*
X-14949D02*
D03*
Y121600D02*
D03*
X-21051D02*
D03*
X-14949Y134200D02*
D03*
X-21051D02*
D03*
X-14949Y146800D02*
D03*
X-21051D02*
D03*
X-14949Y77500D02*
D03*
X-21051D02*
D03*
X-14949Y83800D02*
D03*
X-21051D02*
D03*
X-14949Y90100D02*
D03*
X-21051D02*
D03*
X-14949Y96400D02*
D03*
X-21051D02*
D03*
X-14949Y102700D02*
D03*
X-21051D02*
D03*
X-14949Y109000D02*
D03*
X-21051D02*
D03*
X-336449Y217000D02*
D03*
X-342551D02*
D03*
X-332949Y236700D02*
D03*
X-339051D02*
D03*
X-376751Y241500D02*
D03*
X-370649D02*
D03*
X-109269Y235400D02*
D03*
X-115372D02*
D03*
X-135057D02*
D03*
X-128954D02*
D03*
X-54700Y313100D02*
D03*
X-48598D02*
D03*
X-32949Y332100D02*
D03*
X-39051D02*
D03*
X-62249Y148700D02*
D03*
X-68351D02*
D03*
X-73749Y139500D02*
D03*
X-79851D02*
D03*
D56*
X-58000Y94900D02*
D03*
X-62600D02*
D03*
D57*
X-256958Y213858D02*
D03*
X-252642Y209542D02*
D03*
X-280358Y171158D02*
D03*
X-276043Y166842D02*
D03*
X-262643Y219243D02*
D03*
X-266957Y223557D02*
D03*
D58*
X-304358Y219243D02*
D03*
X-300043Y223557D02*
D03*
X-295942Y219458D02*
D03*
X-300257Y215142D02*
D03*
X-291200Y234100D02*
D03*
X-295515Y229785D02*
D03*
X-287757Y237442D02*
D03*
X-283442Y241757D02*
D03*
X-296158Y211243D02*
D03*
X-291843Y215558D02*
D03*
X-246657Y187742D02*
D03*
X-242342Y192058D02*
D03*
D59*
X-112320Y206029D02*
D03*
Y212328D02*
D03*
X-132006Y206029D02*
D03*
Y212328D02*
D03*
D60*
X-42455Y128000D02*
D03*
Y129900D02*
D03*
Y126000D02*
D03*
Y124000D02*
D03*
Y122100D02*
D03*
Y120100D02*
D03*
Y118100D02*
D03*
Y116100D02*
D03*
Y114200D02*
D03*
Y112200D02*
D03*
Y110200D02*
D03*
Y108300D02*
D03*
X-75655D02*
D03*
Y110200D02*
D03*
Y112200D02*
D03*
Y114200D02*
D03*
Y116100D02*
D03*
Y118100D02*
D03*
Y120100D02*
D03*
Y122100D02*
D03*
Y124000D02*
D03*
Y126000D02*
D03*
Y128000D02*
D03*
Y129900D02*
D03*
D61*
X-48255Y102500D02*
D03*
X-50155D02*
D03*
X-52155D02*
D03*
X-54155D02*
D03*
X-56055D02*
D03*
X-58055D02*
D03*
X-60055D02*
D03*
X-62055D02*
D03*
X-63955D02*
D03*
X-65955D02*
D03*
X-67955D02*
D03*
X-69855D02*
D03*
Y135700D02*
D03*
X-67955D02*
D03*
X-65955D02*
D03*
X-63955D02*
D03*
X-62055D02*
D03*
X-60055D02*
D03*
X-58055D02*
D03*
X-56055D02*
D03*
X-54155D02*
D03*
X-52155D02*
D03*
X-50155D02*
D03*
X-48255D02*
D03*
D62*
X-266855Y212331D02*
D03*
X-268199Y213675D02*
D03*
X-265441Y210917D02*
D03*
X-264027Y209503D02*
D03*
X-262683Y208159D02*
D03*
X-261269Y206745D02*
D03*
X-259855Y205331D02*
D03*
X-258441Y203917D02*
D03*
X-257097Y202573D02*
D03*
X-255683Y201159D02*
D03*
X-254269Y199745D02*
D03*
X-252925Y198401D02*
D03*
X-276401Y174925D02*
D03*
X-277745Y176269D02*
D03*
X-279159Y177683D02*
D03*
X-280573Y179097D02*
D03*
X-281917Y180441D02*
D03*
X-283331Y181855D02*
D03*
X-284745Y183269D02*
D03*
X-286159Y184683D02*
D03*
X-287503Y186027D02*
D03*
X-288917Y187441D02*
D03*
X-290331Y188855D02*
D03*
X-291675Y190199D02*
D03*
D63*
X-252925D02*
D03*
X-254269Y188855D02*
D03*
X-255683Y187441D02*
D03*
X-257097Y186027D02*
D03*
X-258441Y184683D02*
D03*
X-259855Y183269D02*
D03*
X-261269Y181855D02*
D03*
X-262683Y180441D02*
D03*
X-264027Y179097D02*
D03*
X-265441Y177683D02*
D03*
X-266855Y176269D02*
D03*
X-268199Y174925D02*
D03*
X-291675Y198401D02*
D03*
X-290331Y199745D02*
D03*
X-288917Y201159D02*
D03*
X-287503Y202573D02*
D03*
X-286159Y203917D02*
D03*
X-284745Y205331D02*
D03*
X-283331Y206745D02*
D03*
X-281917Y208159D02*
D03*
X-280573Y209503D02*
D03*
X-279159Y210917D02*
D03*
X-277745Y212331D02*
D03*
X-276401Y213675D02*
D03*
D64*
X-62031Y284784D02*
D03*
Y293800D02*
D03*
Y302816D02*
D03*
D65*
X-88369Y293800D02*
D03*
D66*
X-127534Y110800D02*
D03*
X-119266D02*
D03*
X-127534Y123400D02*
D03*
X-119266D02*
D03*
D67*
X-103600Y292887D02*
D03*
Y278713D02*
D03*
X-47100Y288827D02*
D03*
Y303000D02*
D03*
D68*
X-103600Y292887D02*
Y301700D01*
X-104713Y278600D02*
X-104213Y278100D01*
X-122163Y278600D02*
X-104713D01*
X-122700Y128234D02*
Y235008D01*
X-126815Y124118D02*
X-122700Y128234D01*
X-127012Y124118D02*
X-126815D01*
X-127534Y123597D02*
X-127012Y124118D01*
X-127534Y123400D02*
Y123597D01*
Y110800D02*
Y123400D01*
X-165500Y278600D02*
X-122163D01*
X-122561Y235340D02*
Y278202D01*
Y235146D02*
Y235340D01*
X-122700Y235008D02*
X-122561Y235146D01*
Y278202D02*
X-122163Y278600D01*
X-112320Y203175D02*
Y206029D01*
X-112320Y206029D02*
X-112320Y206029D01*
X-115900Y287151D02*
Y290500D01*
X-116000Y287051D02*
X-115900Y287151D01*
X-47100Y279600D02*
Y288827D01*
X-62031Y279131D02*
Y284784D01*
X-104213Y278100D02*
X-103600Y278713D01*
X-198100Y246000D02*
X-165500Y278600D01*
X-260100Y246000D02*
X-198100D01*
D69*
X-91849Y89100D02*
X-82800D01*
X-113600Y110851D02*
X-91849Y89100D01*
X-119266Y123400D02*
X-119115Y123551D01*
X-113600D01*
X-113651Y110800D02*
X-113600Y110851D01*
X-119266Y110800D02*
X-113651D01*
X-82800Y89100D02*
X-79600D01*
X-82800D02*
X-82776Y89076D01*
X-79524D01*
X-113600Y123551D02*
X-94249D01*
X-79524Y89076D02*
X-79500Y89051D01*
X-8100Y81100D02*
Y89100D01*
Y121700D01*
X-11700Y77500D02*
X-8100Y81100D01*
X-38644Y153549D02*
X-35100D01*
X-41400D02*
X-38644D01*
X-16700Y185749D02*
X-9800D01*
X-8100Y146800D02*
Y184049D01*
X-9800Y185749D02*
X-8100Y184049D01*
Y134200D02*
Y146800D01*
X-14949D02*
X-8100D01*
Y121700D02*
Y134200D01*
X-8200Y121600D02*
X-8100Y121700D01*
X-14949Y121600D02*
X-8200D01*
X-14949Y134200D02*
X-8100D01*
X-14949Y77500D02*
X-11700D01*
D70*
X-21439Y312681D02*
X-19100Y310343D01*
X-21439Y312681D02*
Y313090D01*
X-36449Y328100D02*
X-21439Y313090D01*
X-39375Y332028D02*
X-39347Y332000D01*
X-47987Y332028D02*
X-39375D01*
X-55400Y313800D02*
Y318800D01*
Y313800D02*
X-54749Y313149D01*
X-54700Y313100D01*
X-61400Y313149D02*
X-54749D01*
X-48598Y313100D02*
X-47920Y313778D01*
Y318800D01*
X-42949Y313100D02*
X-42900Y313149D01*
X-48598Y313100D02*
X-42949D01*
X-48160Y331855D02*
X-47987Y332028D01*
X-19100Y310343D02*
X-19049Y310394D01*
D71*
X-369016Y211850D02*
D03*
X-379016D02*
D03*
X-369016Y221850D02*
D03*
X-379016D02*
D03*
X-369016Y231850D02*
D03*
X-379016Y201850D02*
D03*
X-369016D02*
D03*
X-379016Y191850D02*
D03*
X-369016D02*
D03*
X-379016Y181850D02*
D03*
X-369016D02*
D03*
X-379016Y171850D02*
D03*
Y161850D02*
D03*
X-369016Y171850D02*
D03*
Y161850D02*
D03*
D72*
X-379016Y231850D02*
D03*
D73*
X-19100Y310343D02*
D03*
D74*
Y290657D02*
D03*
D75*
X-76555Y168937D02*
D03*
X-71555Y178937D02*
D03*
X-66555Y168937D02*
D03*
X-61555Y178937D02*
D03*
X-56555Y168937D02*
D03*
X-51555Y178937D02*
D03*
X-46555Y168937D02*
D03*
X-44055Y220118D02*
D03*
X-74055D02*
D03*
X-34252D02*
D03*
X-83859D02*
D03*
D76*
X-41555Y178937D02*
D03*
D77*
X-27953Y188780D02*
D03*
X-90158D02*
D03*
D78*
X-36555Y203937D02*
D03*
X-81555D02*
D03*
D79*
X-171575Y180492D02*
D03*
Y191398D02*
D03*
Y202303D02*
D03*
Y213209D02*
D03*
X-182756Y207756D02*
D03*
Y196850D02*
D03*
Y185945D02*
D03*
Y175039D02*
D03*
D80*
Y218661D02*
D03*
D81*
X-177165Y147658D02*
D03*
Y246043D02*
D03*
D82*
X-107500Y147600D02*
D03*
X-15700Y244800D02*
D03*
X-137795Y78740D02*
D03*
Y314961D02*
D03*
D83*
X-112320Y223942D02*
D03*
Y194415D02*
D03*
X-132006Y223942D02*
D03*
Y194415D02*
D03*
D84*
X-103600Y301700D02*
D03*
X-198100Y246000D02*
D03*
X-260100D02*
D03*
X-62031Y279131D02*
D03*
X-47100Y279600D02*
D03*
D85*
X-79500Y79100D02*
D03*
X-72700Y91700D02*
D03*
X-56100Y78600D02*
D03*
X-48400Y79500D02*
D03*
X-65500Y93300D02*
D03*
X-116800Y117500D02*
D03*
X-113500Y101500D02*
D03*
X-153100Y117154D02*
D03*
X-63800Y150300D02*
D03*
X-89700Y131300D02*
D03*
X-83500Y134700D02*
D03*
X-73000Y147500D02*
D03*
X-78078Y146195D02*
D03*
X-79800Y135900D02*
D03*
X-283400Y168200D02*
D03*
X-156937Y129500D02*
D03*
Y121237D02*
D03*
X-160300Y123400D02*
D03*
X-153100Y128889D02*
D03*
X-160300Y128200D02*
D03*
X-82800Y89100D02*
D03*
X-28700Y147700D02*
D03*
X-52800Y143600D02*
D03*
X-38500Y150275D02*
D03*
X-47700Y147700D02*
D03*
X-16900Y195900D02*
D03*
X-100400Y114700D02*
D03*
X-8100Y89100D02*
D03*
X-11900Y93200D02*
D03*
X-37700Y129900D02*
D03*
X-112320Y203175D02*
D03*
X-115900Y290500D02*
D03*
X-57800Y327000D02*
D03*
X-39500Y326800D02*
D03*
X-257100Y176500D02*
D03*
X-94200Y123600D02*
D03*
X-104375Y109024D02*
D03*
X-97000Y105300D02*
D03*
X-91100Y104100D02*
D03*
X-84800Y100500D02*
D03*
X-52155Y130500D02*
D03*
X-18500Y153500D02*
D03*
X-12000Y96400D02*
D03*
Y127900D02*
D03*
Y115300D02*
D03*
Y109000D02*
D03*
Y102700D02*
D03*
X-244500Y185800D02*
D03*
X-62000Y107300D02*
D03*
X-64005Y130500D02*
D03*
X-71000Y127950D02*
D03*
Y124050D02*
D03*
Y118100D02*
D03*
X-12000Y83800D02*
D03*
X-14949Y140500D02*
D03*
X-79200Y153549D02*
D03*
X-260100Y221900D02*
D03*
X-352158Y236825D02*
D03*
X-279100Y189000D02*
D03*
X-275200Y186400D02*
D03*
X-287400Y194300D02*
D03*
X-301700Y213800D02*
D03*
X-282700Y200500D02*
D03*
X-310200Y220400D02*
D03*
X-240100Y194200D02*
D03*
X-290100Y217200D02*
D03*
X-300000Y227900D02*
D03*
X-292800Y178200D02*
D03*
X-289100Y175600D02*
D03*
X-269800Y220900D02*
D03*
X-250300Y207100D02*
D03*
X-105700Y165400D02*
D03*
X-305400Y185400D02*
D03*
X-299700Y191100D02*
D03*
X-274100Y179800D02*
D03*
X-257800Y192400D02*
D03*
X-270300Y209000D02*
D03*
X-294000Y236900D02*
D03*
X-290500Y240400D02*
D03*
M02*
